<mxfile host="app.diagrams.net" agent="Mozilla/5.0 (Windows NT 10.0; Win64; x64) AppleWebKit/537.36 (KHTML, like Gecko) Chrome/136.0.0.0 Safari/537.36 Edg/136.0.0.0" version="26.3.0">
  <diagram name="第 1 页" id="HhDRZkSUoWjvhtvlWH3m">
    <mxGraphModel dx="1426" dy="797" grid="1" gridSize="10" guides="1" tooltips="1" connect="1" arrows="1" fold="1" page="1" pageScale="1" pageWidth="827" pageHeight="1169" background="#ffffff" math="0" shadow="0">
      <root>
        <mxCell id="0" />
        <mxCell id="1" parent="0" />
        <mxCell id="m0BtBNpSwxO4hojVJM09-6" style="edgeStyle=orthogonalEdgeStyle;rounded=0;orthogonalLoop=1;jettySize=auto;html=1;exitX=0.5;exitY=1;exitDx=0;exitDy=0;entryX=0.5;entryY=0;entryDx=0;entryDy=0;" edge="1" parent="1" source="m0BtBNpSwxO4hojVJM09-1" target="m0BtBNpSwxO4hojVJM09-2">
          <mxGeometry relative="1" as="geometry" />
        </mxCell>
        <mxCell id="m0BtBNpSwxO4hojVJM09-1" value="&lt;font style=&quot;font-size: 24px;&quot;&gt;输出数据&lt;/font&gt;" style="rounded=1;whiteSpace=wrap;html=1;" vertex="1" parent="1">
          <mxGeometry x="354" y="140" width="120" height="60" as="geometry" />
        </mxCell>
        <mxCell id="m0BtBNpSwxO4hojVJM09-7" style="edgeStyle=orthogonalEdgeStyle;rounded=0;orthogonalLoop=1;jettySize=auto;html=1;exitX=0.5;exitY=1;exitDx=0;exitDy=0;entryX=0.5;entryY=0;entryDx=0;entryDy=0;" edge="1" parent="1" source="m0BtBNpSwxO4hojVJM09-2" target="m0BtBNpSwxO4hojVJM09-3">
          <mxGeometry relative="1" as="geometry" />
        </mxCell>
        <mxCell id="m0BtBNpSwxO4hojVJM09-2" value="&lt;font style=&quot;font-size: 24px;&quot;&gt;初级特征抽象&lt;/font&gt;" style="rounded=1;whiteSpace=wrap;html=1;" vertex="1" parent="1">
          <mxGeometry x="316" y="240" width="196" height="60" as="geometry" />
        </mxCell>
        <mxCell id="m0BtBNpSwxO4hojVJM09-8" style="edgeStyle=orthogonalEdgeStyle;rounded=0;orthogonalLoop=1;jettySize=auto;html=1;exitX=0.5;exitY=1;exitDx=0;exitDy=0;entryX=0.5;entryY=0;entryDx=0;entryDy=0;" edge="1" parent="1" source="m0BtBNpSwxO4hojVJM09-3" target="m0BtBNpSwxO4hojVJM09-4">
          <mxGeometry relative="1" as="geometry" />
        </mxCell>
        <mxCell id="m0BtBNpSwxO4hojVJM09-3" value="&lt;font style=&quot;font-size: 24px;&quot;&gt;高级特征精炼&lt;/font&gt;" style="rounded=1;whiteSpace=wrap;html=1;" vertex="1" parent="1">
          <mxGeometry x="316" y="340" width="196" height="60" as="geometry" />
        </mxCell>
        <mxCell id="m0BtBNpSwxO4hojVJM09-4" value="&lt;font style=&quot;font-size: 24px;&quot;&gt;输出层次化特征&lt;/font&gt;" style="rounded=1;whiteSpace=wrap;html=1;" vertex="1" parent="1">
          <mxGeometry x="319.5" y="440" width="189" height="60" as="geometry" />
        </mxCell>
      </root>
    </mxGraphModel>
  </diagram>
</mxfile>
